<svg width="49" height="40" viewBox="0 0 49 40" fill="none" xmlns="http://www.w3.org/2000/svg">
<path fill-rule="evenodd" clip-rule="evenodd" d="M31.479 27.16C32.069 26.26 32.289 25.8 32.739 24.79C29.419 23.53 28.889 18.8 32.169 16.99C31.169 15.73 29.759 15 28.429 15C27.469 15 26.809 15.25 26.219 15.48C25.719 15.67 25.269 15.84 24.709 15.84C24.109 15.84 23.579 15.65 23.019 15.45C22.409 15.23 21.769 15 20.969 15C19.479 15 17.889 15.91 16.879 17.47C15.459 19.67 15.709 23.79 17.999 27.31C18.819 28.57 19.919 29.98 21.349 30C21.949 30.01 22.339 29.83 22.769 29.64C23.259 29.42 23.789 29.18 24.719 29.18C25.649 29.17 26.169 29.42 26.659 29.64C27.079 29.83 27.459 30.01 28.049 30C29.499 29.98 30.659 28.42 31.479 27.16ZM28.219 10C28.379 11.1 27.929 12.19 27.339 12.95C26.709 13.77 25.609 14.41 24.549 14.37C24.359 13.31 24.849 12.22 25.449 11.49C26.119 10.69 27.249 10.07 28.219 10Z" fill="#252F31"/>
</svg>
