<svg width="52" height="40" viewBox="0 0 52 40" fill="none" xmlns="http://www.w3.org/2000/svg">
<path d="M35.54 19.07C35.5154 18.825 35.4002 18.5981 35.2172 18.4335C35.0341 18.2689 34.7962 18.1785 34.55 18.18H27C26.45 18.18 26 18.63 26 19.18V20.89C26 21.44 26.45 21.89 27 21.89H31.51C31.4 22.81 30.8 24.2 29.47 25.13C28.62 25.72 27.49 26.13 26 26.13C25.93 26.13 25.87 26.13 25.8 26.12C23.25 26.04 21.09 24.33 20.31 21.98C20.0937 21.3422 19.9823 20.6735 19.98 20C19.98 19.31 20.1 18.64 20.3 18.02C20.36 17.84 20.43 17.66 20.51 17.48C21.43 15.41 23.44 13.95 25.8 13.88C25.86 13.87 25.93 13.87 26 13.87C27.43 13.87 28.5 14.34 29.25 14.86C29.64 15.13 30.16 15.07 30.5 14.74L31.89 13.38C32.33 12.95 32.29 12.22 31.79 11.86C30.2 10.69 28.26 10 26 10C25.93 10 25.87 10 25.8 10.01C23.9814 10.0422 22.2063 10.5718 20.6673 11.5414C19.1283 12.511 17.8842 13.8835 17.07 15.51C16.39 16.87 16 18.39 16 20C16 21.61 16.39 23.13 17.07 24.49H17.08C17.8931 26.1153 19.1355 27.4871 20.6726 28.4566C22.2098 29.4261 23.983 29.9564 25.8 29.99C25.87 30 25.93 30 26 30C28.7 30 30.97 29.11 32.62 27.58C34.51 25.83 35.6 23.27 35.6 20.22C35.6 19.79 35.58 19.42 35.54 19.07Z" fill="#252F31"/>
</svg>
