<svg width="85" height="77" viewBox="0 0 85 77" fill="none" xmlns="http://www.w3.org/2000/svg">
<path d="M70.4174 37.5C70.4174 53.1925 57.6962 65.9138 42.0036 65.9138C26.3111 65.9138 13.5898 53.1925 13.5898 37.5C13.5898 21.8075 26.3111 9.08618 42.0036 9.08618C57.6962 9.08618 70.4174 21.8075 70.4174 37.5ZM15.3557 37.5C15.3557 52.2172 27.2864 64.1479 42.0036 64.1479C56.7209 64.1479 68.6515 52.2172 68.6515 37.5C68.6515 22.7828 56.7209 10.8521 42.0036 10.8521C27.2864 10.8521 15.3557 22.7828 15.3557 37.5Z" fill="url(#paint0_linear_21_375)"/>
<g clip-path="url(#clip0_21_375)">
<path fill-rule="evenodd" clip-rule="evenodd" d="M68.8785 15.9261C68.9544 15.9448 69.6484 16.9306 70.9657 18.8965C71.9215 20.4451 72.1138 22.4965 71.5437 25.0526C71.3084 26.048 70.2621 29.0687 68.3855 34.0977C66.1249 40.2914 63.4439 46.716 60.3398 53.3868C59.2146 55.8271 57.3682 57.4805 54.8267 58.3319C52.7979 59.0035 49.8395 59.2609 45.9576 59.0821C44.603 59.0034 39.2902 58.8153 30.0126 58.5427C22.1136 58.2815 17.5297 58.0185 16.264 57.7634C14.7807 57.4413 13.4922 56.5458 12.3916 55.0807C11.4281 53.7243 10.9071 52.4417 10.8388 51.2505C10.7988 50.2214 11.3759 48.4679 12.5517 45.9983C13.606 43.8422 14.7273 41.863 15.923 40.0611C16.611 39.1128 18.5442 35.8959 21.7089 30.4231C24.6984 25.1788 26.5565 22.0979 27.2715 21.1966C28.4294 19.6598 29.8089 18.4912 31.3981 17.7023C32.6621 17.0916 33.7702 16.8235 34.7425 16.8885C35.2501 16.9017 38.4937 16.5703 44.4934 15.901C51.1669 15.2024 56.3239 14.7897 59.9672 14.6634C64.4777 14.533 67.4548 14.9532 68.8785 15.9261Z" fill="#252F31"/>
<path fill-rule="evenodd" clip-rule="evenodd" d="M71.3255 19.5208C72.2813 21.0694 72.4625 23.1017 71.8653 25.6108C71.6238 26.4824 70.5503 29.4561 68.6289 34.5202C66.4201 40.3643 63.705 46.7459 60.5 53.665C59.3748 56.1053 57.5283 57.7587 54.9869 58.6101C52.958 59.2817 49.9997 59.5391 46.1177 59.3603C45.0333 59.3066 39.7279 59.1514 30.2128 58.8904C22.368 58.7232 17.8122 58.5089 16.5415 58.2451C15.0622 57.93 13.7788 57.0593 12.7122 55.6372C11.7728 54.3225 11.2668 53.0661 11.1985 51.8748C11.6448 52.5399 12.3322 52.9778 13.2535 53.1882C14.2569 53.4161 16.0402 53.5003 18.6113 53.4383C19.9088 53.4341 25.3415 53.4511 34.9214 53.4938C42.791 53.5911 47.2576 53.5417 48.3257 53.3615C50.7915 53.117 52.223 52.9057 52.6193 52.742C54.2456 52.1102 55.7712 50.6788 57.2087 48.4292C59.5627 44.6638 62.4308 37.9668 65.8175 28.3542C66.5246 26.4632 67.4753 24.0308 68.6728 21.0504C69.4586 18.8684 69.6894 17.3772 69.3494 16.5859C69.8553 16.9107 70.2381 17.369 70.512 17.9527L71.3255 19.5208Z" fill="#252F31"/>
<path fill-rule="evenodd" clip-rule="evenodd" d="M30.2241 58.8934C22.3683 58.7233 17.8124 58.509 16.5417 58.2451C15.0625 57.9301 13.786 57.0554 12.7125 55.6372C11.773 54.3226 11.2711 53.0731 11.1987 51.8749C11.645 52.5399 12.3364 52.9849 13.2537 53.1883C14.2571 53.4162 16.0404 53.5003 18.6116 53.4384C19.909 53.4342 25.3487 53.4471 34.9216 53.4939C42.7912 53.5912 47.2618 53.5487 48.3329 53.3575C48.8576 53.3076 49.5974 53.2518 50.5595 53.1861C51.4162 53.0628 52.1531 52.8929 52.7627 52.6596C54.3955 55.4911 55.6506 57.2403 56.5313 57.9005L55.5166 58.3952L55.4025 58.3706L54.4145 58.7503L54.3056 58.7227C53.4846 59.013 52.2665 59.2194 50.6645 59.3367L50.3751 59.3228L49.361 59.3467L48.9355 59.4113L46.118 59.3604C45.0376 59.3136 39.7281 59.1514 30.2241 58.8934Z" fill="#252F31"/>
<path fill-rule="evenodd" clip-rule="evenodd" d="M22.1866 43.0311C23.09 43.1985 23.0259 44.3132 21.9907 46.3934C21.0738 48.461 20.1867 49.6609 19.3139 49.9741C18.4433 50.2953 17.0007 50.4389 15.01 50.4187C13.975 50.4547 13.4109 50.0731 13.314 49.2599C13.2321 48.5655 13.4506 47.67 13.9881 46.5535C14.9274 44.5287 15.9033 43.3216 16.9152 42.9189C17.4817 42.7197 18.4158 42.6701 19.7203 42.7869C20.3783 42.8432 21.1964 42.923 22.1866 43.0311Z" fill="#FCFAFA"/>
<path fill-rule="evenodd" clip-rule="evenodd" d="M21.1582 34.6342C21.9194 34.0145 23.419 33.7639 25.663 33.8929C27.2831 34.0086 27.9113 34.4528 27.5445 35.216C27.231 36.0758 26.3896 37.6734 25.009 40.0177C24.7053 40.5637 24.254 40.9143 23.6644 41.0735C23.5012 41.105 23.0047 41.1109 22.1817 41.0872L18.5114 41.1665C18.273 41.1765 18.0726 41.1112 17.9254 40.9528C17.788 40.7145 17.7597 40.4597 17.8436 40.1656C18.0042 39.7022 18.492 38.7696 19.2965 37.3741C20.1911 35.8083 20.817 34.8935 21.1582 34.6342Z" fill="#FCFAFA"/>
<path fill-rule="evenodd" clip-rule="evenodd" d="M32.1281 25.9006C32.2414 26.206 32.0368 26.8756 31.5194 27.9179C30.8257 29.187 30.3579 30.0454 30.1221 30.4874C29.4307 31.8733 28.7745 32.6226 28.1578 32.7348L23.5823 32.8656C22.9296 32.8063 22.5459 32.6289 22.4325 32.3234L22.4152 31.9626L25.2145 26.828C25.4834 26.4273 25.8995 26.1247 26.465 25.9238C26.7683 25.8045 27.0907 25.7183 27.4211 25.646L28.5712 25.5436C30.7699 25.3882 31.9526 25.5035 32.1281 25.9006Z" fill="#FCFAFA"/>
<path fill-rule="evenodd" clip-rule="evenodd" d="M29.8524 24.0632C28.1935 24.0858 27.4635 23.8926 27.6582 23.4721C28.484 22.0086 29.752 20.5983 31.4519 19.2473C32.2492 18.5975 33.4803 18.1958 35.1302 18.0486C35.4916 18.0302 35.8398 17.9848 36.1692 17.9107C36.3605 17.9279 36.3867 18.1306 36.2408 18.5229C35.1594 21.3738 34.5052 22.9817 34.2882 23.3594C33.9303 23.8115 32.4506 24.0482 29.8524 24.0632Z" fill="#FCFAFA"/>
<path fill-rule="evenodd" clip-rule="evenodd" d="M23.1847 50.8919C22.2915 50.7302 21.9994 50.1268 22.3248 49.0701C22.8794 47.8904 23.2111 47.1105 23.3108 46.7471C23.5594 46.1055 23.8973 45.4494 24.3091 44.7763C24.795 43.9978 25.1689 43.5736 25.4251 43.4815C26.7784 43.1345 28.1661 42.96 29.5826 42.9405C30.9262 42.9073 31.9147 43.0164 32.5597 43.2679C33.5401 43.5647 33.2354 45.1333 31.6413 47.9623C30.6449 49.9042 29.8138 50.935 29.1501 51.0744C28.2755 51.3887 26.2898 51.3286 23.1847 50.8919Z" fill="#FCFAFA"/>
<path fill-rule="evenodd" clip-rule="evenodd" d="M26.6313 41.2098C26.2558 41.0022 26.1263 40.6041 26.2368 40.0537C26.3826 39.6613 26.5515 39.309 26.7542 39.0113L27.5867 37.2288C28.1901 36.021 28.664 35.2216 28.9989 34.8385C29.3831 34.4361 29.9135 34.1581 30.5812 34.0257C31.0006 33.9021 31.9476 33.8264 33.4113 33.7797C34.6859 33.7238 35.7104 33.8469 36.5035 34.1335C37.2398 34.4505 37.5745 34.8091 37.5028 35.2213C37.2014 36.3198 36.5122 37.8668 35.4228 39.8531C34.8981 40.7698 34.3779 41.3155 33.8625 41.4944C33.7883 41.4747 33.3068 41.5066 32.4229 41.5829C31.8782 41.707 30.8881 41.724 29.4663 41.6215C27.9514 41.5633 27.0031 41.4311 26.6313 41.2098Z" fill="#FCFAFA"/>
<path fill-rule="evenodd" clip-rule="evenodd" d="M39.5276 25.3441C40.6268 25.3267 41.2599 25.5132 41.4354 25.9103C41.5136 26.046 41.4729 26.4148 41.3163 26.9941C40.7542 28.4956 40.0428 29.9557 39.193 31.3774C38.7284 32.1969 37.5723 32.5553 35.7148 32.4514C32.8835 32.5984 31.2856 32.5696 30.9138 32.3483C30.6383 32.2013 30.7489 31.5743 31.2333 30.4908C31.5721 29.6789 31.9468 28.9738 32.3396 28.3765C33.2817 27.2075 33.9487 26.4891 34.344 26.1986C35.2644 25.5404 36.9973 25.255 39.5276 25.3441Z" fill="#FCFAFA"/>
<path fill-rule="evenodd" clip-rule="evenodd" d="M39.2902 18.1574C39.4504 18.1206 40.5126 17.9786 42.4676 17.7111C44.9605 17.5136 45.9941 17.8422 45.5584 18.7077C45.2898 19.4235 45.0471 20.0269 44.8393 20.5175C44.5058 21.4515 44.0901 22.2428 43.6031 22.8944C42.9793 23.7524 40.6927 24.086 36.7379 23.8936C36.2741 23.8435 35.9595 23.6286 35.791 23.2275C35.6282 22.8323 35.6301 22.4605 35.8047 22.1141L37.2369 19.4318C37.5607 18.8117 38.2432 18.3903 39.2902 18.1574Z" fill="#FCFAFA"/>
<path fill-rule="evenodd" clip-rule="evenodd" d="M39.9344 42.9992C40.3688 42.9944 41.1949 42.9792 42.4224 42.9505C43.5108 43.0112 44.1666 43.1846 44.4023 43.4844C44.5858 43.8027 44.4195 44.5869 43.885 45.8176C43.2087 47.3224 42.7511 48.3557 42.5163 48.9244C41.9209 50.2551 41.1086 51.0039 40.0886 51.1587C38.9353 51.2073 36.7994 51.1086 33.6823 50.8688C32.8393 50.7941 32.4836 50.4476 32.6122 49.8196C32.7447 49.1823 33.171 48.1392 33.8755 46.6831C34.5989 45.026 35.1757 44.0422 35.6118 43.7258C36.3322 43.2571 37.7696 43.0076 39.9344 42.9992Z" fill="#FCFAFA"/>
<path fill-rule="evenodd" clip-rule="evenodd" d="M48.0624 33.8579C48.4061 34.0305 48.3465 34.6813 47.8902 35.8136C47.7822 36.0659 47.3327 37.0042 46.5363 38.6315C45.6008 40.3483 44.6114 41.2619 43.5563 41.372C41.6502 41.6112 39.6967 41.5627 37.7049 41.2257C37.025 41.1194 36.6614 40.8679 36.6159 40.4584C36.5996 40.2244 36.6992 39.7962 36.8989 39.1828C37.2391 37.946 37.8447 36.5724 38.7211 35.0797C39.3468 33.9147 40.6589 33.3389 42.6622 33.361C45.7069 33.2694 47.5094 33.4352 48.0624 33.8579Z" fill="#FCFAFA"/>
<path fill-rule="evenodd" clip-rule="evenodd" d="M50.2578 29.4423C49.5062 30.9256 48.1826 31.7514 46.2913 31.9196C45.1202 32.0341 44.1789 32.1156 43.4572 32.1586C42.0665 32.2189 41.2533 32.0992 41.0169 31.8021C40.7381 31.5364 40.8386 30.7994 41.322 29.589C41.7204 28.562 42.1411 27.7308 42.5862 27.1033C43.5119 25.7003 44.5154 24.9039 45.5835 24.7237C48.3556 24.3651 50.2327 24.2329 51.2229 24.3409C52.2855 24.4698 51.9707 26.1741 50.2578 29.4423Z" fill="#FCFAFA"/>
<path fill-rule="evenodd" clip-rule="evenodd" d="M45.6729 23.0961C45.0612 23.0154 45.3773 21.781 46.6135 19.4041C47.26 18.1622 48.3516 17.3774 49.9032 17.0436C50.684 16.9016 51.6862 16.8127 52.9137 16.7839C53.6113 16.6992 54.2364 16.7629 54.8012 17.0003C55.3462 17.3002 55.5618 17.6742 55.4431 18.1135C54.7733 20.1661 54.254 21.4876 53.9002 22.0555C53.5172 22.7746 52.1789 23.1477 49.8883 23.1637C47.3731 23.1934 45.9624 23.1748 45.6729 23.0961Z" fill="#FCFAFA"/>
<path fill-rule="evenodd" clip-rule="evenodd" d="M66.3083 20.0062C66.0708 20.8848 65.3034 21.4454 64.022 21.6953C63.5646 21.7691 62.4512 21.8224 60.6732 21.8603C57.9108 21.9051 56.4987 21.7066 56.4192 21.2541C56.3249 20.8728 56.5313 20.0492 57.0325 18.7729C57.5349 17.4866 57.9498 16.7584 58.2779 16.5692C59.0684 16.1133 60.9967 15.9609 64.0597 16.1067C66.1573 16.1996 66.9055 17.4971 66.3083 20.0062Z" fill="#FCFAFA"/>
<path fill-rule="evenodd" clip-rule="evenodd" d="M54.2502 24.9128C54.8883 24.3015 56.3218 23.9362 58.5555 23.8255C60.3455 23.7157 61.8656 23.7708 63.1052 23.9807C63.9294 24.1196 64.0933 24.9846 63.5865 26.5817C63.2071 27.9685 62.6069 29.2463 61.7838 30.4C61.2089 31.2298 60.5517 31.6991 59.8127 31.817C59.7368 31.7982 59.0579 31.754 57.7832 31.6848C54.269 31.6115 52.3714 31.438 52.0868 31.1664C51.8793 30.9153 52.1066 29.8617 52.7726 27.9921C53.4396 26.2494 53.9372 25.2208 54.2502 24.9128Z" fill="#FCFAFA"/>
<path fill-rule="evenodd" clip-rule="evenodd" d="M58.0476 39.8781C57.2539 41.1956 56.0099 41.7322 54.3145 41.4699C50.6924 41.6488 48.5937 41.5542 48.0206 41.2056C47.6499 40.986 47.5663 40.4177 47.7767 39.4921C47.9133 38.987 48.0752 38.5135 48.2699 38.093L49.3091 36.0198C49.6145 35.0371 50.4518 34.2994 51.851 33.8101C52.5347 33.5965 53.1733 33.474 53.7749 33.4446L54.9976 33.4719C57.6416 33.3146 59.252 33.5263 59.8361 34.1119C60.3484 34.6856 59.7564 36.6029 58.0476 39.8781Z" fill="#FCFAFA"/>
<path fill-rule="evenodd" clip-rule="evenodd" d="M52.64 43.0868C53.2358 43.0514 53.8596 43.2178 54.5069 43.5862C55.2853 44.069 55.5771 44.6355 55.4027 45.2969C55.1381 46.1285 54.6494 46.999 53.9274 47.9044C53.1203 48.868 52.292 49.589 51.4595 50.069C50.7109 50.5007 49.5918 50.657 48.0947 50.533C46.82 50.4638 45.8629 50.2718 45.2506 49.9481C44.7959 49.712 44.8363 48.8544 45.3494 47.3812C45.7408 46.2331 46.1633 45.2478 46.6199 44.4306C47.1747 43.5498 48.3868 43.1313 50.2671 43.1618L50.9429 43.0433L52.64 43.0868Z" fill="#FCFAFA"/>
<path fill-rule="evenodd" clip-rule="evenodd" d="M13.5287 49.7897C13.1055 49.1646 13.2646 48.0855 13.9881 46.5536C14.9313 44.5357 15.9033 43.3216 16.9151 42.9189C17.4816 42.7197 18.4198 42.6771 19.7203 42.787C20.3783 42.8432 21.1964 42.9231 22.1906 43.0381C22.7004 43.1682 22.8822 43.6892 22.7159 44.5823C22.5434 44.501 22.4202 44.4446 22.3433 44.4241C19.6565 44.0637 17.9003 44.0265 17.0676 44.3166C16.1517 44.6639 15.1748 45.8693 14.1406 47.9512C13.8248 48.6942 13.6194 49.3017 13.5287 49.7897Z" fill="#FEF15A"/>
<path fill-rule="evenodd" clip-rule="evenodd" d="M25.663 33.8929C27.2831 34.0086 27.9114 34.4529 27.5445 35.216L27.3186 35.6267C25.8172 35.0718 24.7186 34.8361 24.0251 34.9278C22.3122 35.1716 21.0674 36.0818 20.294 37.6402C19.3816 39.3969 18.8502 40.5725 18.6884 41.1548L18.5114 41.1665C18.273 41.1765 18.0726 41.1113 17.9254 40.9528C17.788 40.7145 17.7597 40.4597 17.8436 40.1656C18.0042 39.7022 18.492 38.7697 19.3035 37.3701C20.1981 35.8043 20.8171 34.8935 21.1582 34.6342C21.9194 34.0145 23.419 33.7639 25.663 33.8929Z" fill="#FEF15A"/>
<path fill-rule="evenodd" clip-rule="evenodd" d="M32.128 25.9005C32.2333 26.0831 32.1645 26.4033 31.9296 26.8469L28.8361 26.9667C27.0087 27.0239 25.734 27.6686 25.0123 28.889L22.9656 32.7599C22.649 32.6342 22.4526 32.4671 22.3934 32.2555L22.4151 31.9626L25.2144 26.8279C25.4833 26.4272 25.8995 26.1246 26.465 25.9237C26.7683 25.8044 27.0866 25.7112 27.421 25.6459L28.5712 25.5435C30.7768 25.3841 31.9525 25.5034 32.128 25.9005Z" fill="#FEF15A"/>
<path fill-rule="evenodd" clip-rule="evenodd" d="M36.2407 18.5229L36.0232 19.1095C33.7637 19.49 32.1222 20.0913 31.1129 20.9259C30.3734 21.4705 29.5045 22.5324 28.4868 24.1066C27.835 24.049 27.5593 23.8372 27.6581 23.472C28.4838 22.0085 29.7519 20.5983 31.4517 19.2472C32.2491 18.5974 33.4802 18.1958 35.1301 18.0486C35.4915 18.0302 35.8397 17.9847 36.1691 17.9106C36.3603 17.9278 36.3866 18.1306 36.2407 18.5229Z" fill="#FEF15A"/>
<path fill-rule="evenodd" clip-rule="evenodd" d="M25.5463 45.458C25.4303 45.5875 24.9562 46.322 24.1207 47.6637C23.6347 48.4422 23.4217 49.5245 23.4791 50.9144L23.1847 50.8918C22.2915 50.7301 22.0064 50.1228 22.3248 49.07C22.8864 47.8864 23.211 47.1105 23.3108 46.7471C23.5593 46.1055 23.8973 45.4494 24.309 44.7762C24.799 44.0047 25.1689 43.5735 25.4291 43.4884C26.7784 43.1344 28.1661 42.96 29.5826 42.9404C30.9262 42.9073 31.9146 43.0164 32.5596 43.2679C33.0505 43.4739 33.1901 43.9821 32.9726 44.7865L32.9335 44.7187C32.669 44.3729 30.7464 44.3135 27.1483 44.5342C26.5525 44.5695 26.0132 44.8805 25.5463 45.458Z" fill="#FEF15A"/>
<path fill-rule="evenodd" clip-rule="evenodd" d="M26.7542 39.0115L27.5907 37.2359C28.1901 36.0211 28.664 35.2218 28.9988 34.8386C29.3901 34.4323 29.9134 34.1583 30.5812 34.0258C31.0006 33.9022 31.9476 33.8266 33.4113 33.7798C34.6859 33.7239 35.7103 33.847 36.5034 34.1336C37.2397 34.4507 37.5744 34.8093 37.5028 35.2214L37.0386 36.5135C36.4682 35.855 36.0823 35.4518 35.881 35.3246C35.5781 35.0009 34.8682 34.8587 33.769 34.8761C32.7357 34.911 31.9016 35.0212 31.2632 35.2086C29.964 35.6495 29.0587 36.4427 28.55 37.6051L27.1822 41.3627L26.6313 41.2099C26.2558 41.0023 26.1302 40.6112 26.2367 40.0538C26.3825 39.6615 26.5514 39.3092 26.7542 39.0115Z" fill="#FEF15A"/>
<path fill-rule="evenodd" clip-rule="evenodd" d="M39.5276 25.3441C40.5108 25.3311 41.1336 25.4958 41.3963 25.8425C41.5026 26.0269 41.4919 26.339 41.3742 26.78C40.48 26.6166 39.4357 26.5397 38.2623 26.5373C37.5434 26.581 36.7355 26.8012 35.8409 27.1896C34.8601 27.63 34.1086 28.1537 33.5906 28.7676C32.9104 29.5237 32.2309 30.7569 31.5298 32.4567L30.9138 32.3484C30.6383 32.2013 30.7489 31.5744 31.2385 30.4878C31.5721 29.679 31.9468 28.9739 32.3448 28.3736C33.2817 27.2076 33.9557 26.4851 34.344 26.1987C35.2644 25.5405 36.9973 25.255 39.5276 25.3441Z" fill="#FEF15A"/>
<path fill-rule="evenodd" clip-rule="evenodd" d="M42.4728 17.7081C44.9605 17.5135 45.9941 17.8422 45.5584 18.7076C43.8763 18.6903 42.3305 18.8122 40.9273 19.0605C39.3526 19.3543 38.2148 20.0105 37.5068 21.0329C37.084 21.5942 36.6602 22.4805 36.255 23.7015C35.682 23.3529 35.5321 22.8228 35.8047 22.114L37.2299 19.4358C37.5607 18.8117 38.2432 18.3903 39.2902 18.1573C39.4504 18.1206 40.5156 17.9676 42.4728 17.7081Z" fill="#FEF15A"/>
<path fill-rule="evenodd" clip-rule="evenodd" d="M44.4024 43.4844C44.5077 43.667 44.4832 44.052 44.3254 44.6413C42.6892 44.28 41.2944 44.2244 40.1331 44.4607C38.8259 44.7788 37.93 45.052 37.4387 45.2727C36.5499 45.6671 35.9008 46.2592 35.485 47.0506C34.8923 48.0714 34.3929 49.3467 33.9758 50.8897L33.6876 50.8658C32.8434 50.8011 32.4837 50.4476 32.6122 49.8196C32.7447 49.1823 33.1711 48.1392 33.8755 46.6831C34.599 45.026 35.1758 44.0422 35.6159 43.7327C36.3392 43.2531 37.7737 43.0146 39.9345 42.9992C40.3689 42.9944 41.199 42.9862 42.4265 42.9574C43.5109 43.0112 44.1667 43.1846 44.4024 43.4844Z" fill="#FEF15A"/>
<path fill-rule="evenodd" clip-rule="evenodd" d="M42.6622 33.361C45.7069 33.2694 47.5094 33.4351 48.0624 33.8579C48.4342 34.0792 48.3687 34.7682 47.8543 35.9247L45.6209 35.2657C44.7416 35.0312 43.7133 34.9821 42.5429 35.0938C41.2816 35.2696 40.4458 35.5986 40.0397 36.0761C39.6578 36.4864 38.8783 38.2036 37.7049 41.2256C37.025 41.1194 36.6614 40.8679 36.6159 40.4584C36.5996 40.2244 36.6992 39.7962 36.9029 39.1897C37.2392 37.9459 37.8447 36.5724 38.7211 35.0797C39.3468 33.9147 40.6589 33.3388 42.6622 33.361Z" fill="#FEF15A"/>
<path fill-rule="evenodd" clip-rule="evenodd" d="M51.7305 26.185C50.1891 25.7783 48.9736 25.6102 48.0915 25.6854C46.0142 25.9585 44.543 26.6817 43.6763 27.8606C43.0462 28.5947 42.4029 30.0156 41.7549 32.1181C41.3193 32.0078 41.0711 31.896 41.0209 31.809C40.7381 31.5364 40.8387 30.7994 41.322 29.589C41.7205 28.562 42.1411 27.7307 42.5862 27.1032C43.512 25.7003 44.5154 24.9038 45.5835 24.7236C48.3556 24.365 50.2327 24.2328 51.2229 24.3409C51.8739 24.4012 52.0467 25.0154 51.7305 26.185Z" fill="#FEF15A"/>
<path fill-rule="evenodd" clip-rule="evenodd" d="M52.9136 16.7839C53.6112 16.6992 54.2363 16.7629 54.8011 17.0004C55.3461 17.3003 55.5618 17.6742 55.443 18.1135L55.1993 18.8079C54.7814 18.305 54.4457 18.0374 54.1732 18.0044C53.6445 17.9385 52.7695 17.9818 51.5473 18.1327C50.1228 18.34 49.1358 18.6287 48.6044 18.9976C47.9352 19.4461 47.2838 20.8369 46.6492 23.1844L45.6728 23.0962C45.0612 23.0154 45.3772 21.781 46.6134 19.4041C47.2599 18.1622 48.3515 17.3775 49.9031 17.0436C50.6839 16.9016 51.6861 16.8127 52.9136 16.7839Z" fill="#FEF15A"/>
<path fill-rule="evenodd" clip-rule="evenodd" d="M52.64 43.0867C53.2359 43.0514 53.8597 43.2178 54.507 43.5862C55.2854 44.069 55.5812 44.6424 55.4028 45.2968C54.8405 44.7613 53.5026 44.4736 51.3889 44.4618C50.6401 44.4578 49.8923 44.6086 49.1396 44.9245C48.342 45.2593 47.8017 45.6612 47.5118 46.1343C47.0592 46.9585 46.5709 48.3177 46.0551 50.2259L45.2507 49.9481C44.803 49.708 44.8364 48.8544 45.3495 47.3811C45.7409 46.233 46.1634 45.2478 46.627 44.4265C47.1748 43.5498 48.3869 43.1313 50.2672 43.1618L50.943 43.0433L52.64 43.0867Z" fill="#FEF15A"/>
<path fill-rule="evenodd" clip-rule="evenodd" d="M55.5648 35.1009C54.6017 35.0398 53.6556 35.1775 52.7449 35.5218C51.6739 35.8219 50.9203 36.2935 50.4804 36.918C49.9186 37.6777 49.4564 39.1749 49.0872 41.4342C48.5804 41.4182 48.2269 41.3416 48.0206 41.2056C47.6538 40.993 47.5663 40.4178 47.7807 39.4992C47.9203 38.983 48.0861 38.5165 48.2739 38.1L49.3091 36.0198C49.6145 35.0372 50.4628 34.3023 51.8509 33.8101C52.5347 33.5966 53.1773 33.481 53.7801 33.4416L55.0086 33.4749C57.6416 33.3147 59.252 33.5264 59.8401 34.1189C60.0718 34.4117 60.1113 34.8594 59.9495 35.4418C59.7542 35.3087 59.1443 35.227 58.1341 35.193L55.5648 35.1009Z" fill="#FEF15A"/>
<path fill-rule="evenodd" clip-rule="evenodd" d="M54.2502 24.9129C54.8883 24.3015 56.3217 23.9362 58.5554 23.8255C60.3524 23.7117 61.8655 23.7708 63.1051 23.9808C63.8592 24.1068 64.0431 24.8977 63.642 26.3596C63.4086 26.0677 61.8574 25.8498 58.9887 25.7101C56.7439 25.5839 55.4088 26.0108 54.9881 26.995L53.4767 31.4797C52.7066 31.4347 52.246 31.3295 52.0868 31.1664C51.8792 30.9153 52.1135 29.8578 52.7725 27.9922C53.4396 26.2494 53.9371 25.2209 54.2502 24.9129Z" fill="#FEF15A"/>
<path fill-rule="evenodd" clip-rule="evenodd" d="M66.4541 18.8073C65.252 18.0172 64.4365 17.5627 63.9968 17.4454C63.3318 17.2681 62.3758 17.2677 61.1042 17.4378C59.8158 17.5666 59.0791 17.8013 58.9144 18.1489L57.5732 21.7915C56.8914 21.698 56.5107 21.5096 56.4192 21.2541C56.3289 20.8797 56.5314 20.0492 57.0378 18.7699C57.5389 17.4936 57.9568 16.7543 58.2779 16.5692C59.0684 16.1133 60.9967 15.9609 64.0597 16.1067C65.7688 16.171 66.5717 17.0754 66.4541 18.8073Z" fill="#FEF15A"/>
</g>
<defs>
<linearGradient id="paint0_linear_21_375" x1="65.5185" y1="19.6679" x2="20.0564" y2="53.5685" gradientUnits="userSpaceOnUse">
<stop stop-color="#615954"/>
<stop offset="1" stop-color="#FCFAFA"/>
</linearGradient>
<clipPath id="clip0_21_375">
<rect width="68.9655" height="47.4483" fill="white" transform="translate(0.900146 35.2612) rotate(-29.9695)"/>
</clipPath>
</defs>
</svg>
